<?xml version="1.0" encoding="UTF-8" standalone="no"?>
<!-- Created with Inkscape (http://www.inkscape.org/) -->

<svg
   version="1.1"
   id="svg2"
   width="666.89331"
   height="667"
   viewBox="0 0 333 333"
   sodipodi:docname="6171073_3187835.eps"
   xmlns:inkscape="http://www.inkscape.org/namespaces/inkscape"
   xmlns:sodipodi="http://sodipodi.sourceforge.net/DTD/sodipodi-0.dtd"
   xmlns="http://www.w3.org/2000/svg"
   xmlns:svg="http://www.w3.org/2000/svg">
  <defs
     id="defs6" />
  <sodipodi:namedview
     id="namedview4"
     pagecolor="#ffffff"
     bordercolor="#000000"
     borderopacity="0.25"
     inkscape:showpageshadow="2"
     inkscape:pageopacity="0.0"
     inkscape:pagecheckerboard="0"
     inkscape:deskcolor="#d1d1d1" />
  <g
     id="g8"
     inkscape:groupmode="layer"
     inkscape:label="ink_ext_XXXXXX"
     transform="matrix(1.3333333,0,0,-1.3333333,0,667)">
    <g
       id="g10"
       transform="scale(0.1)">
      <path
         d="m 0,2.5 h 5000 v 5000 H 0 Z"
         style="fill:#ffffff;fill-opacity:1;fill-rule:nonzero;stroke:none"
         id="path12" />
      <path
         d="M 2501.67,2500 H 1.66797 V 5000 H 2501.67 V 2500"
         style="fill:#dff3d5;fill-opacity:1;fill-rule:nonzero;stroke:none"
         id="path14" />
      <path
         d="m 5001.67,2500 h -2500 v 2500 h 2500 V 2500"
         style="fill:#fde4ee;fill-opacity:1;fill-rule:nonzero;stroke:none"
         id="path16" />
      <path
         d="M 2501.67,0 H 1.66797 V 2500 H 2501.67 V 0"
         style="fill:#fef5d2;fill-opacity:1;fill-rule:nonzero;stroke:none"
         id="path18" />
      <path
         d="m 2501.67,0 h 2500 v 2500 h -2500 z"
         style="fill:#d9f2e6;fill-opacity:1;fill-rule:nonzero;stroke:none"
         id="path20" />
      <path
         d="M 1336.67,4563.34 H 2070 V 3830 h -733.33 v 733.34"
         style="fill:#ffffff;fill-opacity:1;fill-rule:nonzero;stroke:none"
         id="path22" />
      <path
         d="M 500.004,3627.5 H 1166.67 V 2960.83 H 500.004 v 666.67"
         style="fill:#ffffff;fill-opacity:1;fill-rule:nonzero;stroke:none"
         id="path24" />
      <path
         d="m 1990.05,4100 v 348.38 H 793.289 V 3251.62 H 1990.05 v 335.88 h -20 V 3271.62 H 813.289 V 4428.38 H 1970.05 V 4100 h 20"
         style="fill:#928473;fill-opacity:1;fill-rule:nonzero;stroke:none"
         id="path26" />
      <path
         d="M 595.496,3503.33 V 3093.29 H 1672.84 v 10 H 605.496 v 400.04 h -10"
         style="fill:#928473;fill-opacity:1;fill-rule:nonzero;stroke:none"
         id="path28" />
      <path
         d="M 1840.05,4338.38 H 663.289 V 3161.62 H 1840.05 v 1176.76"
         style="fill:#eef9e8;fill-opacity:1;fill-rule:nonzero;stroke:none"
         id="path30" />
      <path
         d="M 805.832,4260.84 H 602.504 V 4057.5 h 203.328 v 203.34"
         style="fill:#9ec28b;fill-opacity:1;fill-rule:nonzero;stroke:none"
         id="path32" />
      <g
         id="g34"
         transform="scale(10)">
        <text
           xml:space="preserve"
           transform="matrix(1,0,0,-1,30.8148,367.325)"
           style="font-variant:normal;font-weight:bold;font-size:43.3811px;font-family:OpenSans;-inkscape-font-specification:OpenSans-Bold;writing-mode:lr-tb;fill:#5a534b;fill-opacity:1;fill-rule:nonzero;stroke:none"
           id="text38"><tspan
             x="0 46.198181 102.41597 155.51947"
             y="0"
             sodipodi:role="line"
             id="tspan36">LOGO</tspan></text>
        <text
           xml:space="preserve"
           transform="matrix(1,0,0,-1,84.1953,341.5621)"
           style="font-variant:normal;font-weight:normal;font-size:16.5841px;font-family:OpenSans;-inkscape-font-specification:OpenSans;writing-mode:lr-tb;fill:#5a534b;fill-opacity:1;fill-rule:nonzero;stroke:none"
           id="text42"><tspan
             x="0 18.7432 26.254438 39.750031 47.261269 66.004471 78.544472"
             y="0"
             sodipodi:role="line"
             id="tspan40">minimal</tspan></text>
      </g>
      <path
         d="m 886.668,4382.5 h 795.004 v 10 H 886.668 Z"
         style="fill:#928473;fill-opacity:1;fill-rule:nonzero;stroke:none"
         id="path44" />
      <path
         d="m 1919.17,3317.5 h 10 v 268.332 h -10 z"
         style="fill:#928473;fill-opacity:1;fill-rule:nonzero;stroke:none"
         id="path46" />
      <path
         d="m 1919.17,4102.5 h 10 v 268.336 h -10 z"
         style="fill:#928473;fill-opacity:1;fill-rule:nonzero;stroke:none"
         id="path48" />
      <path
         d="m 2025.72,875 -5,8.66 L 1376.2,511.551 736.68,880.77 v 738.46 l 639.52,369.22 639.52,-369.22 V 875 h 10 l -5,8.66 5,-8.66 h 10 v 755.77 L 1376.2,2011.55 716.68,1630.77 V 869.23 L 1376.2,488.449 2035.72,869.23 V 875 h -10"
         style="fill:#928473;fill-opacity:1;fill-rule:nonzero;stroke:none"
         id="path50" />
      <path
         d="M 758.824,1190 V 630 L 1243.8,350 1728.78,630 v 560 L 1243.8,1470 758.824,1190"
         style="fill:#f3d59e;fill-opacity:1;fill-rule:nonzero;stroke:none"
         id="path52" />
      <path
         d="M 597.613,1625 V 875 l 649.527,-375 649.51,375 v 750 l -649.51,375 -649.527,-375"
         style="fill:#ffffff;fill-opacity:1;fill-rule:nonzero;stroke:none"
         id="path54" />
      <g
         id="g56"
         transform="scale(10)">
        <text
           xml:space="preserve"
           transform="matrix(1,0,0,-1,85.4758,134.992)"
           style="font-variant:normal;font-weight:bold;font-size:43.3811px;font-family:OpenSans;-inkscape-font-specification:OpenSans-Bold;writing-mode:lr-tb;fill:#5a534b;fill-opacity:1;fill-rule:nonzero;stroke:none"
           id="text62"><tspan
             x="0 46.198181"
             y="0"
             sodipodi:role="line"
             id="tspan58">LO</tspan><tspan
             x="-3.4527299 49.650768"
             y="52.056999"
             sodipodi:role="line"
             id="tspan60">GO</tspan></text>
        <text
           xml:space="preserve"
           transform="matrix(0.866146,-0.499792,-0.499792,-0.866146,137.527,206.452)"
           style="font-variant:normal;font-weight:normal;font-size:16.584px;font-family:OpenSans;-inkscape-font-specification:OpenSans;writing-mode:lr-tb;fill:#5a534b;fill-opacity:1;fill-rule:nonzero;stroke:none"
           id="text68"><tspan
             x="0 18.742516 26.253695 39.749195 47.260376 66.003822"
             y="0"
             sodipodi:role="line"
             id="tspan64">minima</tspan><tspan
             x="78.543434"
             y="-0.00053982926"
             id="tspan66">l</tspan></text>
      </g>
      <path
         d="M 450.992,1317.5 V 1189.17 L 562.137,1125 673.273,1189.17 V 1317.5 L 562.137,1381.67 450.992,1317.5"
         style="fill:#f8b273;fill-opacity:1;fill-rule:nonzero;stroke:none"
         id="path70" />
      <path
         d="m 554.168,730 h 10 v 365 h -10 z"
         style="fill:#928473;fill-opacity:1;fill-rule:nonzero;stroke:none"
         id="path72" />
      <path
         d="m 1960.83,1233.33 h 10 v 365 h -10 z"
         style="fill:#928473;fill-opacity:1;fill-rule:nonzero;stroke:none"
         id="path74" />
      <path
         d="m 4362.14,858.391 c -220.82,0 -399.83,175.329 -399.83,391.609 0,216.28 179.01,391.61 399.83,391.61 220.82,0 399.82,-175.33 399.82,-391.61 0,-216.28 -179,-391.609 -399.82,-391.609"
         style="fill:#b9e7d3;fill-opacity:1;fill-rule:nonzero;stroke:none"
         id="path76" />
      <path
         d="m 3171.2,858.391 c -220.82,0 -399.83,175.329 -399.83,391.609 0,216.28 179.01,391.61 399.83,391.61 220.82,0 399.82,-175.33 399.82,-391.61 0,-216.28 -179,-391.609 -399.82,-391.609"
         style="fill:#b9e7d3;fill-opacity:1;fill-rule:nonzero;stroke:none"
         id="path78" />
      <path
         d="M 4530.43,1079.24 C 4453.37,792.059 4186.33,579.98 3868.59,580 c -189.04,0 -360.08,75.031 -483.91,196.309 -123.82,121.3 -200.33,288.701 -200.34,473.691 0.01,184.99 76.52,352.39 200.34,473.69 123.83,121.28 294.87,196.31 483.91,196.31 283.54,0.01 526.7,-168.85 630.52,-409.28 l 18.36,7.93 c -106.96,247.7 -357.27,421.34 -648.88,421.35 -194.38,0 -370.47,-77.19 -497.91,-202.02 -127.44,-124.81 -206.34,-297.41 -206.34,-487.98 0,-190.57 78.9,-363.168 206.34,-487.98 C 3498.12,637.191 3674.21,560 3868.59,560 c 326.79,0.02 601.71,218.059 681.15,514.06 l -19.31,5.18"
         style="fill:#928473;fill-opacity:1;fill-rule:nonzero;stroke:none"
         id="path80" />
      <path
         d="m 4444.83,1250 c 0,-375.559 -310.83,-680 -694.26,-680 -383.42,0 -694.25,304.441 -694.25,680 0,375.56 310.83,680 694.25,680 383.43,0 694.26,-304.44 694.26,-680"
         style="fill:#ffffff;fill-opacity:1;fill-rule:nonzero;stroke:none"
         id="path82" />
      <path
         d="m 3556.82,1823.33 c 0,-69.95 -57.9,-126.66 -129.32,-126.66 -71.42,0 -129.32,56.71 -129.32,126.66 0,69.96 57.9,126.67 129.32,126.67 71.42,0 129.32,-56.71 129.32,-126.67"
         style="fill:#74cfaa;fill-opacity:1;fill-rule:nonzero;stroke:none"
         id="path84" />
      <g
         id="g86"
         transform="scale(10)">
        <text
           xml:space="preserve"
           transform="matrix(1,0,0,-1,283.815,114.325)"
           style="font-variant:normal;font-weight:bold;font-size:43.3811px;font-family:OpenSans;-inkscape-font-specification:OpenSans-Bold;writing-mode:lr-tb;fill:#5a534b;fill-opacity:1;fill-rule:nonzero;stroke:none"
           id="text90"><tspan
             x="0 46.198181 102.41597 155.51942"
             y="0"
             sodipodi:role="line"
             id="tspan88">LOGO</tspan></text>
        <text
           xml:space="preserve"
           transform="matrix(1,0,0,-1,337.1951,88.5621)"
           style="font-variant:normal;font-weight:normal;font-size:16.5841px;font-family:OpenSans;-inkscape-font-specification:OpenSans;writing-mode:lr-tb;fill:#5a534b;fill-opacity:1;fill-rule:nonzero;stroke:none"
           id="text94"><tspan
             x="0 18.743183 26.254421 39.750015 47.261253 66.004456 78.544456"
             y="0"
             sodipodi:role="line"
             id="tspan92">minimal</tspan></text>
      </g>
      <path
         d="m 3099.17,812.5 h 620 v 10 h -620 z"
         style="fill:#928473;fill-opacity:1;fill-rule:nonzero;stroke:none"
         id="path96" />
      <path
         d="m 4044.15,4516.66 -438.69,-759.82 h 877.37 z"
         style="fill:#ffffff;fill-opacity:1;fill-rule:nonzero;stroke:none"
         id="path98" />
      <path
         d="m 3218.64,4118.98 -438.68,-759.83 h 877.37 z"
         style="fill:#fbcfe4;fill-opacity:1;fill-rule:nonzero;stroke:none"
         id="path100" />
      <path
         d="m 3890.49,4497.54 -8.66,5 -626.47,-1085.08 h 1270.27 l -635.14,1100.08 -8.66,-15 8.66,-5 -8.66,-5 609.16,-1055.08 H 3290 l 609.15,1055.08 -8.66,5 -8.66,-5 8.66,5"
         style="fill:#928473;fill-opacity:1;fill-rule:nonzero;stroke:none"
         id="path102" />
      <path
         d="m 3016.57,2992.9 h 1459.47 v 10 H 3016.57 Z"
         style="fill:#928473;fill-opacity:1;fill-rule:nonzero;stroke:none"
         id="path104" />
      <path
         d="M 3736.84,4493.91 2957.8,3144.57 h 1558.09 z"
         style="fill:#ffffff;fill-opacity:1;fill-rule:nonzero;stroke:none"
         id="path106" />
      <g
         id="g108"
         transform="scale(10)">
        <text
           xml:space="preserve"
           transform="matrix(1,0,0,-1,330.695,283.562)"
           style="font-variant:normal;font-weight:normal;font-size:16.5841px;font-family:OpenSans;-inkscape-font-specification:OpenSans;writing-mode:lr-tb;fill:#5a534b;fill-opacity:1;fill-rule:nonzero;stroke:none"
           id="text112"><tspan
             x="0 18.743183 26.254421 39.750015 47.261253 66.004456 78.544456"
             y="0"
             sodipodi:role="line"
             id="tspan110">minimal</tspan></text>
        <text
           xml:space="preserve"
           transform="matrix(1,0,0,-1,333.47625,378.9921)"
           style="font-variant:normal;font-weight:bold;font-size:43.3811px;font-family:OpenSans;-inkscape-font-specification:OpenSans-Bold;writing-mode:lr-tb;fill:#5a534b;fill-opacity:1;fill-rule:nonzero;stroke:none"
           id="text118"><tspan
             x="0 46.198181"
             y="0"
             sodipodi:role="line"
             id="tspan114">LO</tspan><tspan
             x="-3.45313 49.650368"
             y="52.056999"
             sodipodi:role="line"
             id="tspan116">GO</tspan></text>
      </g>
      <path
         d="m 3583.94,4429.45 -132.9,-230.19 h 265.8 z"
         style="fill:#f689ca;fill-opacity:1;fill-rule:nonzero;stroke:none"
         id="path120" />
      <path
         d="m 4235,3231.67 h 440 v 10 h -440 z"
         style="fill:#928473;fill-opacity:1;fill-rule:nonzero;stroke:none"
         id="path122" />
      <path
         d="m 4015.22,4155.8 -132.14,228.89 -8.66,-5 132.14,-228.89"
         style="fill:#928473;fill-opacity:1;fill-rule:nonzero;stroke:none"
         id="path124" />
    </g>
  </g>
</svg>
